<svg width="70" height="70" viewBox="0 0 70 70" fill="none" xmlns="http://www.w3.org/2000/svg">
<path d="M35 67.2656C52.7734 67.2656 67.2656 52.7734 67.2656 35C67.2656 26.3594 63.9297 18.2656 57.8047 12.1953C51.7344 6.07031 43.6406 2.73438 35 2.73438C17.2266 2.73438 2.73438 17.1719 2.73438 35C2.73438 40.6875 4.21094 46.2109 7.05469 51.1328L3.99219 62.3984C3.33594 64.8047 5.52344 67.0469 7.98438 66.3906L19.6328 63.3281C24.2812 65.8984 29.5859 67.2656 35 67.2656Z" fill="white"/>
<path d="M35 60.7031C30.7344 60.7031 26.4688 59.6094 22.6953 57.5859C21.7109 57.0391 20.6172 56.7656 19.5781 56.7656C19.0312 56.7656 18.4844 56.8203 17.9375 56.9844L11.8125 58.5703L13.3984 52.8281C13.8359 51.1328 13.6172 49.3281 12.7422 47.7969C10.4453 43.9141 9.29688 39.4844 9.29688 35C9.29688 20.7812 20.8359 9.29688 35 9.29688C41.8906 9.29688 48.3438 11.9766 53.2109 16.8437C58.0234 21.6562 60.7031 28.1094 60.7031 35C60.7031 49.1641 49.1641 60.7031 35 60.7031Z" fill="#40F1B1"/>
<path d="M59.0078 11.0469C52.6094 4.64844 44.0781 1.09375 35 1.09375C16.2969 1.09375 1.09375 16.2969 1.09375 35C1.09375 40.7422 2.51562 46.375 5.30469 51.3516L2.40625 61.9609C1.91406 63.6562 2.40625 65.4062 3.66406 66.6641C4.92187 67.9219 6.67187 68.4141 8.36719 67.9766L19.4141 65.0781C24.2266 67.5938 29.5859 68.9062 35.0547 68.9062C53.7578 68.9062 68.9609 53.7031 68.9609 35C68.9062 25.9766 65.4062 17.4453 59.0078 11.0469ZM35 65.625C29.9141 65.625 24.8281 64.3125 20.3437 61.9062C20.125 61.7969 19.8516 61.6875 19.5781 61.6875C19.4141 61.6875 19.3047 61.6875 19.1406 61.7422L7.49219 64.8047C6.67187 65.0234 6.125 64.5859 5.90625 64.3672C5.6875 64.1484 5.25 63.6016 5.46875 62.7812L8.53125 51.5156C8.64062 51.0781 8.58594 50.6406 8.36719 50.2578C5.74219 45.6641 4.375 40.3594 4.375 35C4.375 18.1016 18.1016 4.375 35 4.375C43.2031 4.375 50.9141 7.54687 56.6562 13.3438C62.4531 19.1406 65.6797 26.8516 65.625 35C65.625 51.8984 51.8984 65.625 35 65.625Z" fill="#444B54"/>
<path d="M50.8047 46.5391C50.1484 48.3984 46.8672 50.2578 45.3359 50.3672C43.8594 50.4766 42.4922 51.0234 35.6562 48.3438C27.4531 45.1172 22.2578 36.6953 21.875 36.1484C21.4922 35.6016 18.5938 31.7734 18.5938 27.7812C18.5938 23.7891 20.6719 21.875 21.4375 21.0547C22.2031 20.2344 23.0234 20.0703 23.5703 20.0703C24.1172 20.0703 24.6641 20.0703 25.1016 20.0703C25.7031 20.0703 26.3047 20.125 26.9062 21.4375C27.6172 23.0234 29.2031 27.0156 29.3672 27.3984C29.5859 27.7812 29.6953 28.2734 29.4219 28.8203C29.1484 29.3672 29.0391 29.6953 28.6016 30.1875C28.2188 30.6797 27.7266 31.2266 27.3984 31.6094C27.0156 31.9922 26.5781 32.4297 27.0703 33.25C27.5625 34.0703 29.1484 36.6953 31.5547 38.8281C34.6172 41.5625 37.2422 42.4375 38.0625 42.8203C38.8828 43.2031 39.3203 43.1484 39.8125 42.6016C40.3047 42.0547 41.8359 40.25 42.3828 39.4297C42.9297 38.6094 43.4766 38.7734 44.1875 39.0469C44.9531 39.3203 48.8906 41.2891 49.7109 41.6719C50.5312 42.0547 51.0781 42.2734 51.2422 42.6016C51.4609 43.0391 51.4609 44.625 50.8047 46.5391Z" fill="#006475"/>
</svg>
